<svg xmlns="http://www.w3.org/2000/svg" width="1398" height="716" viewBox="0 0 1398 716">
    <g transform="translate(0,716) scale(0.1,-0.1)" stroke="none">
        <path fill="#0098ef" 
            d="M8600 7135 c-324 -41 -591 -122 -880 -266 -584 -292 -1040 -789 -1285 -1399 -73 -183 -139 -429 -161 -607 l-7 -53 621 0 620 0 30 53 c38 67 108 132 180 165 51 24 69 27 167 27 102 0 115 -2 175 -31 83 -39 155 -111 194 -194 29 -60 31 -73 31 -175 0 -98 -3 -116 -27 -167 -96 -205 -340 -294 -543 -200 -73 35 -152 108 -184 171 l-21 41 -2308 -2 -2307 -3 -50 -27 c-132 -70 -192 -211 -151 -353 14 -46 29 -70 74 -115 96 -96 33 -90 975 -90 l820 0 -84 -88 c-171 -177 -307 -370 -414 -587 -56 -113 -128 -301 -149 -387 l-6 -28 1058 0 1058 0 40 62 c94 148 276 218 448 173 154 -40 273 -174 294 -331 24 -185 -63 -350 -225 -427 -64 -30 -75 -32 -178 -32 -98 0 -116 3 -165 26 -73 35 -145 100 -182 166 l-30 53 -1437 -2 -1436 -3 -57 -28 c-108 -53 -171 -152 -171 -267 0 -115 63 -214 171 -267 l57 -28 352 -3 353 -3 5 -22 c3 -12 12 -56 20 -97 53 -256 171 -537 324 -768 l75 -112 2071 0 2071 0 22 46 c34 69 104 137 175 170 56 26 72 29 172 29 104 0 114 -2 176 -32 81 -40 169 -130 207 -210 23 -50 27 -71 27 -153 0 -86 -3 -101 -32 -163 -42 -88 -117 -163 -208 -208 -65 -32 -76 -34 -170 -34 -97 0 -104 2 -178 38 -80 39 -139 98 -175 175 l-16 32 -2810 -2 -2811 -3 -42 -23 c-143 -76 -204 -245 -140 -385 33 -72 94 -131 163 -157 l55 -20 4505 0 c3090 0 4535 3 4602 11 684 74 1284 445 1666 1031 120 185 243 475 295 698 41 177 54 298 54 505 0 366 -70 664 -229 985 -125 250 -264 441 -459 628 -429 414 -975 632 -1580 632 l-142 0 -6 148 c-27 649 -328 1299 -819 1767 -404 385 -883 618 -1455 711 -141 22 -524 27 -673 9z" />
        <path fill="#0098ef" 
            d="M1587 2496 c-91 -25 -184 -112 -207 -194 -15 -54 -12 -142 6 -195 21 -63 83 -130 152 -164 l57 -28 215 0 c203 0 218 1 265 23 63 29 119 83 153 147 36 68 37 177 4 246 -31 63 -86 116 -152 148 -53 25 -63 26 -250 28 -138 2 -209 -2 -243 -11z" />
        <path fill="#0098ef" 
            d="M224 589 c-52 -15 -126 -71 -160 -122 -98 -143 -49 -336 107 -422 l54 -30 565 0 565 0 54 30 c60 33 122 104 142 162 17 49 17 147 0 196 -20 58 -82 129 -142 162 l-54 30 -550 2 c-314 1 -563 -2 -581 -8z" />
    </g>
</svg>
